<?xml version="1.0" encoding="UTF-8" standalone="no"?>
<svg
   version="1.0"
   width="500.000000pt"
   height="500.000000pt"
   viewBox="0 0 500.000000 500.000000"
   preserveAspectRatio="xMidYMid meet"
   id="svg449"
   sodipodi:docname="safari-pinned-tab-name.svg"
   inkscape:version="1.1 (c68e22c387, 2021-05-23)"
   xmlns:inkscape="http://www.inkscape.org/namespaces/inkscape"
   xmlns:sodipodi="http://sodipodi.sourceforge.net/DTD/sodipodi-0.dtd"
   xmlns="http://www.w3.org/2000/svg"
   xmlns:svg="http://www.w3.org/2000/svg">
  <defs
     id="defs453" />
  <sodipodi:namedview
     id="namedview451"
     pagecolor="#ffffff"
     bordercolor="#666666"
     borderopacity="1.0"
     inkscape:pageshadow="2"
     inkscape:pageopacity="0.0"
     inkscape:pagecheckerboard="true"
     inkscape:document-units="pt"
     showgrid="false"
     inkscape:zoom="2.0470873"
     inkscape:cx="321.67656"
     inkscape:cy="334.62178"
     inkscape:window-width="1780"
     inkscape:window-height="1046"
     inkscape:window-x="129"
     inkscape:window-y="-11"
     inkscape:window-maximized="1"
     inkscape:current-layer="layer2" />
  <metadata
     id="metadata285">
Created by potrace 1.14, written by Peter Selinger 2001-2017
</metadata>
  <g
     inkscape:groupmode="layer"
     id="layer2"
     inkscape:label="Layer 2"
     style="display:inline">
    <g
       transform="matrix(0.1,0,0,-0.1,2.0862287,501.89886)"
       fill="#000000"
       stroke="none"
       id="g447">
      <path
         d="m 2235,4970 c -3,-6 1,-7 9,-4 18,7 21,14 7,14 -6,0 -13,-4 -16,-10 z"
         id="path287" />
      <path
         d="m 2273,4974 c 7,-7 148,-6 155,1 3,3 -32,5 -78,5 -46,0 -81,-3 -77,-6 z"
         id="path289" />
      <path
         d="m 2546,4962 c -2,-4 14,-8 37,-9 22,-2 38,-1 36,1 -8,8 -69,14 -73,8 z"
         id="path291" />
      <path
         d="m 2827,4959 c 7,-7 15,-10 18,-7 3,3 -2,9 -12,12 -14,6 -15,5 -6,-5 z"
         id="path293" />
      <path
         d="m 2016,4938 c -22,-5 -42,-11 -45,-13 -7,-7 123,7 131,14 11,9 -42,9 -86,-1 z"
         id="path295" />
      <path
         d="m 2128,4943 c 7,-3 16,-2 19,1 4,3 -2,6 -13,5 -11,0 -14,-3 -6,-6 z"
         id="path297" />
      <path
         id="path299"
         style="stroke-width:0.133333"
         d="M 322.38086 9.9980469 C 322.24753 10.13138 318.78125 10.665886 314.78125 11.199219 C 310.78125 11.732552 307.18125 12.266536 306.78125 12.533203 C 306.38125 12.666536 302.51524 13.3319 298.11523 13.865234 C 293.71524 14.398567 288.91393 15.065886 287.44727 15.199219 C 279.5806 16.399219 232.78242 31.866275 201.98242 43.599609 C 182.78242 50.932942 173.58112 55.464974 159.31445 64.931641 C 130.78112 83.598308 131.04779 83.465233 107.31445 109.86523 C 100.78112 117.19856 94.114192 124.66653 92.380859 126.5332 C 90.647526 128.39986 86.781511 133.19922 83.714844 137.19922 C 80.648178 141.19922 77.714975 144.66498 77.181641 144.93164 C 76.514975 145.19831 76.115234 145.99986 76.115234 146.5332 C 76.115234 147.19986 73.580859 151.46614 70.380859 156.13281 C 57.714192 174.79947 44.114713 197.06589 40.248047 205.19922 C 31.714713 223.33256 22.648437 248.53256 20.648438 259.19922 C 20.115104 262.13256 19.5806 265.06523 19.447266 265.86523 C 14.113933 289.86523 14.115104 290.26589 12.648438 319.19922 C 11.048438 349.59922 11.181901 357.19856 14.115234 377.86523 C 14.648567 380.79856 15.847396 389.33217 16.914062 396.79883 C 19.047396 411.8655 24.115364 427.33164 39.582031 464.93164 C 52.782031 496.93164 59.9806 508.39805 75.447266 521.99805 C 82.113933 527.73138 89.1806 534.13281 91.447266 536.13281 C 93.5806 538.13281 95.580989 539.46589 95.847656 539.19922 C 96.114323 538.93256 93.581901 536.26641 90.115234 533.06641 C 83.048567 526.53308 64.115234 501.86641 64.115234 499.06641 C 64.115234 498.13308 59.313933 487.06602 53.447266 474.66602 C 47.5806 462.13269 42.514713 450.79961 42.248047 449.59961 C 42.114713 448.26628 41.448828 446.26589 41.048828 445.19922 C 39.182161 440.93256 36.115234 429.73256 36.115234 427.19922 C 36.115234 424.66589 43.98177 438.53281 44.648438 442.13281 C 44.781771 443.06614 45.314323 444.26602 45.847656 444.66602 C 46.380989 445.19935 46.78125 446.79947 46.78125 448.13281 C 46.78125 449.59947 47.315234 450.26523 48.115234 449.86523 C 48.781901 449.46523 49.048438 449.86498 48.648438 450.93164 C 48.248438 451.99831 49.447786 454.66498 51.314453 456.93164 C 53.314453 459.06498 54.78125 461.46614 54.78125 462.13281 C 54.78125 462.93281 55.581771 465.19869 56.648438 467.33203 C 57.715105 469.46536 59.580729 473.59986 60.914062 476.5332 C 65.847396 487.19986 73.98138 499.3315 80.248047 505.46484 C 83.848046 509.06484 87.047266 511.86523 87.447266 511.86523 C 87.713933 511.86523 85.180989 507.46563 81.847656 502.26562 C 75.847656 493.06563 68.649089 476.26498 69.982422 474.93164 C 70.382422 474.53165 72.38177 478.26589 74.648438 483.19922 C 81.448437 498.13256 96.381123 518.93242 105.31445 525.73242 C 107.18112 527.19908 105.84753 525.19922 102.38086 521.19922 C 98.914192 517.19922 95.049089 511.73256 93.982422 509.19922 C 85.849089 491.19922 85.315756 489.73256 87.982422 493.19922 C 89.449089 495.06589 91.982031 499.06562 93.582031 502.26562 C 96.915364 508.53229 102.78125 516.93203 102.78125 515.33203 C 102.78125 514.79869 101.5819 511.86498 100.11523 508.93164 C 98.648567 505.86498 97.715234 503.0655 98.115234 502.79883 C 98.515234 502.39883 99.982031 505.06602 101.58203 508.66602 C 103.18203 512.26602 106.51406 518.26472 108.91406 521.99805 C 113.18073 528.79805 123.58151 539.86523 125.71484 539.86523 C 127.04818 539.86523 127.18099 537.19922 125.84766 537.19922 C 125.18099 537.06589 122.64857 535.19831 120.11523 532.93164 C 117.5819 530.66498 116.91458 529.73164 118.78125 530.93164 C 126.78125 536.26498 126.91393 535.59908 119.44727 527.73242 C 108.11393 515.73242 104.91445 511.33256 113.31445 519.19922 C 119.98112 525.46589 120.24909 525.59869 117.98242 521.33203 C 116.51576 518.93203 114.91523 515.73178 114.11523 514.39844 C 113.44857 512.93178 112.38099 511.86523 111.84766 511.86523 C 111.18099 511.86523 110.78125 511.33269 110.78125 510.66602 C 110.78125 508.79935 97.181641 488.66484 95.181641 487.46484 C 94.248308 486.79817 93.714713 485.73308 94.248047 485.06641 C 94.648047 484.39974 93.048437 480.6655 90.648438 476.79883 C 81.98177 463.19883 74.781901 447.46523 76.115234 445.86523 C 77.048567 444.66523 77.048567 443.06602 76.115234 440.66602 C 75.448567 438.66602 74.78125 436.26484 74.78125 435.46484 C 74.914583 433.06484 79.449089 441.99805 83.982422 453.99805 C 88.115756 464.66472 111.58125 502.26653 116.78125 506.5332 C 120.11458 509.19986 119.31484 507.59947 111.71484 496.13281 C 108.24818 490.79947 104.38112 484.26484 103.31445 481.46484 C 102.11445 478.39817 102.11497 477.46641 103.18164 479.06641 C 110.2149 489.92089 112.91262 492.1431 118.85352 500.44336 C 118.90692 499.4913 119.89347 500.05458 121.58203 502.13281 C 123.31537 504.26614 123.18164 504.39935 121.18164 502.66602 C 119.92026 501.78306 119.01687 500.85287 118.91016 500.52148 C 127.24191 512.15711 137.9595 528.20065 140.91406 530.5332 C 142.38073 531.59986 141.18229 529.86653 138.51562 526.5332 C 130.78229 517.19986 122.51484 505.19922 123.71484 505.19922 C 124.24818 505.19922 125.7151 506.53281 126.64844 508.13281 C 130.24844 513.99947 137.98203 522.5332 139.58203 522.5332 C 140.51537 522.5332 141.58242 523.59831 141.98242 524.93164 C 143.71576 530.13165 169.31393 552.93256 187.44727 565.19922 C 197.04727 571.73256 192.51419 566.93242 180.38086 557.73242 C 167.04753 547.59908 161.4487 542.39935 161.58203 540.66602 C 161.58203 539.86602 161.98086 539.8655 162.38086 540.79883 C 162.64753 541.73217 163.71562 542.5332 164.51562 542.5332 C 165.44896 542.5332 169.18125 544.53165 172.78125 546.93164 C 187.31458 556.66498 187.9806 556.9319 181.44727 549.86523 C 178.11393 546.39856 173.04857 540.93138 170.11523 537.99805 C 167.04857 534.93138 163.1806 530.39856 161.44727 527.86523 C 158.7806 523.99856 159.7151 524.53165 166.64844 530.93164 C 175.84844 539.33164 210.91406 565.99961 222.91406 573.59961 C 237.71406 583.06628 268.6474 595.59805 272.91406 593.99805 C 273.98073 593.59805 274.78125 594.13256 274.78125 595.19922 C 274.78125 596.26589 275.58228 597.19869 276.51562 597.33203 C 280.78229 597.46536 290.24792 598.9315 290.78125 599.46484 C 291.98125 600.66484 262.78164 598.66589 257.18164 597.19922 C 254.24831 596.39922 251.58112 595.99895 251.31445 596.26562 C 250.91445 596.53229 257.5819 599.06523 266.11523 601.86523 C 274.51524 604.5319 281.44727 607.33138 281.44727 607.99805 C 281.44727 608.53138 280.38164 608.79896 279.18164 608.26562 C 277.84831 607.86563 277.18203 607.86511 277.58203 608.39844 C 278.11537 608.93178 280.24805 609.59856 282.24805 609.86523 C 284.38138 610.1319 289.04844 611.06523 292.64844 611.86523 C 296.1151 612.66523 302.5151 613.59805 306.64844 613.99805 C 310.78177 614.39805 317.18125 615.19908 320.78125 615.73242 C 324.51458 616.26575 337.71419 616.66653 350.38086 616.5332 C 363.18086 616.5332 372.7819 617.06575 372.11523 617.73242 C 371.5819 618.26575 363.18151 618.93308 353.71484 619.06641 C 344.11484 619.06641 336.78112 619.7323 337.31445 620.26562 C 339.04779 621.99896 380.91523 621.19869 386.11523 619.33203 C 387.71523 618.66536 387.44727 619.06562 385.44727 620.26562 C 381.9806 622.26562 371.9806 624.1332 361.44727 624.5332 C 358.11393 624.79986 349.71458 625.33138 342.78125 625.99805 C 335.84792 626.66472 329.31562 627.06641 328.51562 627.06641 C 326.24896 626.79974 326.24896 628.79961 328.51562 629.59961 C 330.51562 630.53295 326.38125 630.6655 306.78125 630.79883 C 291.18125 630.79883 278.5155 628.79805 263.04883 623.99805 C 258.5155 622.66472 254.78125 621.99986 254.78125 622.5332 C 254.78125 623.99986 287.84766 632.79974 301.84766 635.06641 C 303.84766 635.46641 306.51432 635.99844 307.84766 636.39844 C 309.04766 636.79844 312.51393 637.3319 315.44727 637.86523 C 318.3806 638.26523 324.38125 639.19947 328.78125 640.13281 C 333.18125 640.93281 340.91576 641.59908 345.98242 641.73242 C 352.24909 641.86575 355.44766 642.39961 355.84766 643.59961 C 356.24766 644.79961 354.91432 645.33256 351.84766 645.19922 C 349.44766 645.19922 342.91393 645.46575 337.44727 645.73242 C 331.9806 645.99908 324.78203 646.39844 321.58203 646.39844 C 318.38203 646.53178 315.98138 646.79974 316.24805 647.06641 C 317.44805 648.13308 331.18125 649.46472 348.78125 649.99805 C 359.04792 650.39805 369.04831 650.79974 371.18164 651.06641 C 373.18164 651.46641 374.51523 651.06653 374.11523 650.5332 C 373.71523 649.86653 374.51576 649.46628 375.98242 649.59961 C 377.44909 649.59961 378.24909 650.2655 377.98242 650.79883 C 377.58242 651.33217 378.24727 651.86523 379.44727 651.86523 C 380.64727 651.86523 381.31458 651.33269 380.78125 650.66602 C 380.38125 649.99935 380.64727 648.9332 381.44727 648.5332 C 382.24727 647.99986 382.64896 648.39817 382.51562 649.46484 C 382.24896 650.39817 382.7806 651.06498 383.44727 650.93164 C 384.24727 650.93164 388.64727 650.39805 393.44727 649.99805 C 398.24727 649.46472 403.9819 648.79986 406.11523 648.5332 C 408.3819 648.1332 412.24792 647.59869 414.78125 647.33203 C 427.98125 645.73203 471.04766 626.13256 511.84766 603.19922 C 523.44766 596.66589 532.24766 590.39856 541.84766 581.86523 C 561.84766 564.26523 591.84909 534.66653 595.98242 528.5332 C 621.44909 491.7332 623.04844 488.79986 634.64844 456.5332 C 639.18177 443.99986 643.44857 432.66589 644.11523 431.19922 C 647.1819 424.26589 654.7806 397.86498 655.44727 390.93164 C 655.9806 386.66498 656.64883 381.33256 657.04883 379.19922 C 657.44883 376.93256 657.84857 361.99856 658.11523 345.86523 C 658.51524 315.19856 656.91563 295.19856 652.51562 277.86523 C 651.31562 272.66523 650.24857 268.13295 650.11523 267.59961 C 650.11523 267.19961 649.71497 266.26575 649.18164 265.73242 C 648.51497 265.19908 648.11523 263.59896 648.11523 262.26562 C 648.11523 260.9323 646.91537 255.99817 645.58203 251.46484 C 644.11537 246.9315 640.7819 235.99922 638.11523 227.19922 C 635.44857 218.39922 632.64818 209.33256 631.71484 207.19922 C 630.24818 203.06589 605.58138 157.06523 604.24805 155.86523 C 603.84805 155.46523 602.38216 153.06653 601.04883 150.5332 C 599.7155 147.99986 594.78242 141.59986 589.98242 136.5332 C 585.18242 131.3332 577.04766 122.39986 571.84766 116.5332 C 551.71432 93.999867 544.78216 88.131641 505.04883 60.931641 C 495.3155 54.398308 486.11458 49.333202 478.78125 46.533203 C 472.51458 44.266536 465.31458 41.599869 462.78125 40.533203 C 444.51458 33.466536 401.44896 19.198438 390.51562 16.398438 C 384.91563 15.065105 382.91406 14.798567 372.91406 13.865234 C 367.18073 13.3319 361.18151 12.798438 359.71484 12.398438 C 358.24818 12.13177 351.31471 11.599219 344.24805 11.199219 C 337.18138 10.665886 329.44883 10.264714 327.04883 9.9980469 C 324.64883 9.8647136 322.51419 9.8647136 322.38086 9.9980469 z M 118.91016 500.52148 C 118.88856 500.49128 118.87512 500.47356 118.85352 500.44336 C 118.85252 500.46866 118.78125 500.37084 118.78125 500.39844 C 118.78125 500.41284 118.90407 500.50257 118.91016 500.52148 z M 82.134766 278.83398 L 82.365234 278.83398 L 82.134766 279.0625 L 82.134766 278.83398 z M 540.18555 278.83398 L 540.41406 278.83398 L 540.18555 279.0625 L 540.18555 278.83398 z M 81.445312 279.0625 L 81.673828 279.0625 L 81.445312 279.29102 L 81.445312 279.0625 z M 178.89258 279.0625 L 179.12305 279.0625 L 178.89258 279.29102 L 178.89258 279.0625 z M 556.73242 279.55078 L 563.85742 279.55078 L 575.57812 279.55078 L 578.56641 279.74609 L 579.48633 279.74609 L 583.16211 280.18164 C 591.1487 280.72685 599.64462 282.43247 606.14648 287.39648 C 608.20118 288.96371 609.42508 290.36074 611.06836 292.29297 C 613.80103 295.50269 614.78335 297.31398 615.71875 301.41797 C 616.15083 303.30912 616.71644 305.90637 616.71875 307.80664 L 616.71875 369.62891 C 616.71342 372.60593 616.17087 374.98368 615.48828 377.83984 C 614.392 382.44338 612.3511 386.92612 608.63477 390.06055 C 607.51779 391.00501 606.68664 391.2779 605.45703 391.95312 C 602.71062 393.46332 599.48687 394.93417 596.49219 395.86719 L 590.74805 397.48438 C 587.21557 398.28055 579.10142 399.50715 575.57812 399.51172 L 569.37305 399.51172 L 566.61523 399.69922 L 564.77734 399.51758 L 560.41016 399.51758 L 556.50195 399.21875 L 554.43359 398.93164 L 550.06641 398.80859 L 538.3457 397.02539 C 535.36713 396.30679 530.96113 394.66471 528.46289 392.94922 C 526.44728 391.5645 525.58652 390.36011 524.03516 388.5625 L 521.53906 385.59766 C 518.9604 382.02064 517.0232 377.00568 516.97266 372.59375 L 516.51172 367.11914 L 516.51172 332.67188 L 516.51172 317.38672 C 516.51172 311.39843 516.40689 304.58362 518.56055 298.91016 C 519.03172 297.67142 519.5122 296.86004 520.10742 295.71484 C 521.31864 293.3857 522.16528 291.78678 523.96484 289.79297 C 526.16203 287.35432 529.60952 285.79866 532.59961 284.53711 C 538.30398 282.13042 544.39089 280.79839 550.52734 280.04102 L 556.73242 279.55078 z M 195.43945 279.7793 L 202.56445 279.7793 L 214.28711 279.7793 L 217.27344 279.97461 L 218.19336 279.97461 L 221.87109 280.41016 C 229.85768 280.95538 238.35162 282.65903 244.85352 287.62305 C 246.9082 289.19027 248.13406 290.58924 249.77734 292.52148 C 252.51002 295.7312 253.49039 297.5425 254.42578 301.64648 C 254.85786 303.53764 255.42349 306.13486 255.42578 308.03516 L 255.42578 369.85547 C 255.42045 372.8325 254.87987 375.21224 254.19727 378.06836 C 253.10099 382.67195 251.06008 387.15464 247.34375 390.28906 C 246.22679 391.23352 245.39364 391.50637 244.16406 392.18164 C 241.41758 393.69181 238.19587 395.16266 235.20117 396.0957 L 229.45508 397.71289 C 225.9226 398.50904 217.8104 399.73569 214.28711 399.74023 L 208.08008 399.74023 L 205.32227 399.92773 L 203.48438 399.74609 L 199.11719 399.74609 L 195.21094 399.44727 L 193.14258 399.1582 L 188.77539 399.03516 L 177.05469 397.25391 C 174.07609 396.53532 169.67013 394.89324 167.17188 393.17773 C 165.15626 391.793 164.29353 390.58863 162.74219 388.79102 L 160.24609 385.82422 C 157.66739 382.24722 155.73027 377.2342 155.67969 372.82227 L 155.2207 367.34766 L 155.2207 332.90039 L 155.2207 317.61523 C 155.2207 311.62694 155.11394 304.8102 157.26758 299.13672 C 157.73872 297.898 158.21917 297.08855 158.81445 295.94336 C 160.02564 293.61423 160.87425 292.0153 162.67383 290.02148 C 164.87099 287.58282 168.31851 286.02717 171.30859 284.76562 C 177.01297 282.35891 183.09795 281.02689 189.23438 280.26953 L 195.43945 279.7793 z M 536.9668 279.97461 L 537.19727 279.97461 L 536.9668 280.20312 L 536.9668 279.97461 z M 175.67578 280.20312 L 175.9043 280.20312 L 175.67578 280.43164 L 175.67578 280.20312 z M 386.88867 282.02734 L 412.16992 282.02734 C 413.4179 282.04308 415.91592 282.35157 416.99609 282.92188 C 419.18177 284.07619 420.82876 287.05788 422.125 289.09961 L 424.88086 294.11914 L 431.68359 306.66602 L 435.8457 313.73828 C 436.57888 314.72607 437.51544 315.64279 438.83008 315.72266 C 440.47566 315.82079 441.75624 314.23215 442.625 313.05273 L 448.41211 302.33203 L 455.08984 289.55664 C 455.91492 287.92325 457.84502 284.13553 459.29297 283.19336 C 460.6099 282.33333 464.09581 282.03418 465.7207 282.02734 L 489.39258 282.02734 C 490.81063 282.03001 493.4748 282.25339 494.66992 282.99023 C 496.48558 284.11259 496.51527 287.39134 496.51758 289.32812 L 496.51758 372.36523 L 496.51758 387.19336 C 496.51758 388.62827 496.49043 393.60714 496.08594 394.72266 C 495.29764 396.90354 493.07502 397.4567 491.00195 397.45898 L 466.41016 397.45898 C 463.62233 397.42472 461.07657 397.10086 460.18945 394.03711 C 459.9596 393.24782 459.9769 392.56342 459.97461 391.75586 L 459.97461 348.41211 L 459.74414 344.99023 L 459.74414 336.32227 C 458.52146 337.29408 456.75902 340.54258 456.00977 342.02539 L 451.60742 350.46484 C 450.93173 351.7948 449.03423 355.17636 448 356.08203 C 446.32684 357.54659 445.19448 357.4217 443.19727 357.55859 L 441.58789 357.75391 L 436.07227 357.75391 C 434.09572 357.74324 431.81253 357.55787 430.0957 356.54492 C 428.70753 355.72595 428.08442 354.67263 427.1582 353.43164 C 424.91736 350.42493 423.47947 346.9084 421.73047 343.62109 L 417.22656 336.32227 C 416.33711 338.44611 416.99381 340.06847 416.99609 342.25391 L 416.99609 351.83398 L 416.99609 389.01953 L 416.83984 391.75586 L 416.83984 393.125 C 416.97774 394.28845 416.15637 396.36031 415.11523 396.96484 C 414.36369 397.40058 412.59348 397.4567 411.71094 397.45898 L 392.63477 397.45898 C 390.55253 397.45898 385.59422 397.6918 383.90039 396.79297 C 381.71011 395.63182 381.37763 392.84174 381.37305 390.61523 L 381.37305 323.31836 L 381.37305 292.06641 C 381.37305 289.57527 380.75512 284.23122 383.04883 282.73242 C 383.9934 282.11422 385.77627 282.02961 386.88867 282.02734 z M 92.017578 282.06055 L 106.26562 282.06055 L 132.00781 282.06055 C 133.61433 282.04988 136.62492 282.24094 137.58789 283.63477 C 138.21532 284.54499 138.2106 285.76215 138.21289 286.81836 L 138.21289 306.4375 C 138.23342 308.12103 138.63997 311.27788 136.81055 312.23828 C 136.06819 312.6284 135.12256 312.59511 134.30664 312.57227 L 129.47852 312.57227 L 127.18164 312.57227 L 114.31055 312.57227 L 111.55273 312.37695 L 108.10547 312.37695 L 104.88672 312.59766 L 100.06055 312.59766 C 94.742283 312.60699 90.186921 315.27695 90.177734 321.03711 L 90.177734 354.57227 C 90.202974 359.826 91.890898 365.09583 97.533203 366.71094 C 98.52148 366.99383 100.16981 367.11686 101.21094 367.11914 L 133.15625 367.11914 C 136.41062 367.15794 138.20769 367.94454 138.24219 371.45312 L 138.24219 392.44141 C 138.31805 393.69381 138.42894 396.41425 137.26367 397.13281 C 136.5857 397.55032 134.68228 397.45898 133.8457 397.45898 L 90.638672 397.45898 L 87.191406 397.23047 L 84.892578 397.23047 C 82.235742 397.19847 80.512383 396.74675 77.998047 396.18555 C 73.121064 395.10193 66.697374 393.27721 63.068359 389.69336 C 58.630362 385.31107 56.164261 381.38647 54.732422 375.33203 C 54.242887 373.26979 53.867534 370.83412 53.865234 368.71484 L 53.865234 323.08984 C 53.865234 316.23923 53.29775 306.87283 55.632812 300.50586 C 57.195653 296.24449 59.553544 293.05708 62.695312 289.82227 C 64.483386 287.98131 67.343575 286.48774 69.724609 285.54102 C 74.323492 283.71602 80.403345 282.54143 85.351562 282.48438 L 87.650391 282.27734 L 92.017578 282.06055 z M 305.75781 282.06055 L 321.8457 282.06055 L 351.26562 282.06055 C 353.32028 282.05388 356.14225 282.27921 357.17188 284.33008 C 357.57867 285.13993 357.69693 287.24533 357.69922 288.1875 L 357.69922 308.94727 C 357.69389 311.15324 357.24792 312.45785 354.71289 312.58789 L 349.65625 312.36914 L 315.64062 312.36914 C 312.41612 312.40794 309.94652 314.19335 310.14648 317.61523 C 310.22688 318.9817 310.65533 320.27567 311.75391 321.16992 C 313.23404 322.37442 318.4489 323.11625 320.4668 323.35352 L 324.83398 323.83984 L 330.34961 324.6875 L 332.18945 324.6875 L 335.86719 325.31055 C 342.21967 326.23899 347.44052 327.17886 353.10352 330.4707 C 356.53486 332.46454 359.68658 335.1387 361.2793 338.83203 C 362.56634 341.8182 363.40623 346.07571 363.44531 349.32422 L 363.67578 353.66016 L 363.67578 368.03125 L 363.4668 370.76953 C 363.037 377.00648 362.59684 380.96138 358.88281 386.28125 L 357.64062 388.08594 L 356.32031 389.28516 C 355.59634 389.9353 355.05635 390.54361 354.25195 391.12305 C 349.87599 394.2689 343.71278 396.14407 338.39453 396.83984 L 334.94727 397.23047 L 329.89062 397.45898 L 286.68359 397.45898 L 277.94922 397.29492 C 276.38409 397.0896 275.17507 396.8304 274.23047 395.40234 C 273.48352 394.27997 273.35582 392.17602 273.35352 390.84375 L 273.35352 375.78711 C 273.35352 374.24042 273.16116 370.40082 273.84375 369.17578 C 274.77223 367.50818 276.70746 367.34992 278.4082 367.34766 L 321.38672 367.34766 C 323.23225 367.34499 324.42756 366.95314 325.70312 365.51367 C 327.43374 363.55866 327.51681 360.01133 325.28516 358.37109 C 324.18658 357.56127 322.05325 357.2447 320.69727 357.02344 L 311.50391 355.67773 L 303.23047 354.69922 L 298.63477 353.75781 C 293.08211 352.83391 290.10978 352.36543 285.07422 349.62109 C 283.65387 348.84773 282.68584 348.33873 281.39648 347.31445 C 272.22859 340.03495 273.35352 328.48848 273.35352 318.07227 C 273.35352 311.09165 273.03992 306.50595 274.8418 299.59375 C 275.6117 296.63954 278.5495 292.17043 280.7168 290.02148 C 283.23804 287.51667 287.64504 285.33554 291.04883 284.25195 L 293.80664 283.52734 C 295.84981 282.95018 295.93525 282.81801 298.17383 282.54883 L 302.08203 282.25586 C 303.33922 282.25186 304.50755 282.30228 305.75781 282.06055 z M 532.14062 282.48438 L 532.37109 282.48438 L 532.14062 282.71289 L 532.14062 282.48438 z M 170.84766 282.71289 L 171.07812 282.71289 L 170.84766 282.94141 L 170.84766 282.71289 z M 567.6543 310.54492 C 566.23999 310.53381 564.82453 310.58447 563.39844 310.73047 L 559.49023 310.73047 C 558.46979 310.77394 557.47873 310.80339 556.50195 311.13867 C 553.83823 312.05118 553.48969 314.30097 553.24609 316.70312 L 553.05469 318.75586 L 553.05469 338.60352 L 553.05469 358.44922 C 553.12122 364.01093 555.31873 368.47916 561.55859 368.48828 L 570.0625 368.48828 L 572.58984 368.64258 L 574.42969 368.48828 C 575.93047 368.47481 577.47479 368.88817 578.78711 367.91406 C 580.37983 366.73237 580.63249 364.16228 580.63477 362.32812 L 580.63477 319.21289 C 580.62943 318.22056 580.46492 316.48641 580.15234 315.5625 C 579.4192 313.40901 577.63448 311.58256 575.34766 311.08984 L 571.90039 310.73047 C 570.48004 310.62894 569.06861 310.55604 567.6543 310.54492 z M 206.36133 310.77344 C 204.94702 310.76232 203.53158 310.81298 202.10547 310.95898 L 198.19922 310.95898 C 197.17878 311.00245 196.18771 311.03179 195.21094 311.36719 C 192.5472 312.27971 192.19673 314.52951 191.95312 316.93164 L 191.76367 318.98438 L 191.76367 338.83203 L 191.76367 358.67773 C 191.83034 364.23944 194.0277 368.70571 200.26758 368.71484 L 208.76953 368.71484 L 211.29883 368.87109 L 213.13672 368.71484 C 214.63749 368.70138 216.18181 369.11666 217.49414 368.14258 C 219.08686 366.9609 219.3395 364.39075 219.3418 362.55664 L 219.3418 319.44141 C 219.33646 318.44906 219.17195 316.71492 218.85938 315.79102 C 218.12623 313.6375 216.34343 311.80915 214.05664 311.31641 L 210.60938 310.95898 C 209.18904 310.85744 207.77564 310.78455 206.36133 310.77344 z M 294.11523 598.5332 C 295.1819 598.5332 296.11523 598.79974 296.11523 599.06641 C 296.11523 599.33308 295.1819 599.86511 294.11523 600.39844 C 293.04857 600.79844 292.11523 600.5319 292.11523 599.86523 C 292.11523 599.06523 293.04857 598.5332 294.11523 598.5332 z "
         transform="matrix(7.5,0,0,-7.5,-20.862287,5018.9886)" />
      <path
         d="m 3065,4871 c 36,-10 256,-86 375,-130 46,-17 80,-27 75,-23 -6,5 -28,16 -50,24 -22,9 -65,27 -95,41 -111,52 -220,88 -277,92 -42,3 -50,2 -28,-4 z"
         id="path301" />
      <path
         d="m 1889,4865 c -3,-2 -23,-7 -45,-10 -21,-4 -53,-10 -69,-14 -46,-12 -226,-93 -220,-99 3,-3 15,0 28,6 24,12 152,57 262,92 75,24 87,30 63,30 -8,0 -17,-2 -19,-5 z"
         id="path303" />
      <path
         d="m 1560,4788 c -24,-11 -140,-67 -187,-92 -13,-6 -23,-14 -23,-19 0,-4 44,14 98,41 53,26 113,55 132,64 38,18 20,23 -20,6 z"
         id="path305" />
      <path
         d="m 3530,4745 c 0,-2 23,-16 50,-30 63,-32 66,-25 4,9 -48,27 -54,29 -54,21 z"
         id="path307" />
      <path
         d="m 1515,4730 c -3,-6 1,-7 9,-4 18,7 21,14 7,14 -6,0 -13,-4 -16,-10 z"
         id="path309" />
      <path
         d="m 1119,4569 c -23,-19 -23,-20 -2,-10 12,6 25,16 28,21 10,16 -1,12 -26,-11 z"
         id="path311" />
      <path
         d="m 3828,4549 c 34,-24 90,-63 125,-87 l 62,-43 -65,61 c -63,60 -108,89 -160,105 -14,4 3,-12 38,-36 z"
         id="path313" />
      <path
         d="m 3960,4509 c 0,-11 162,-172 215,-214 28,-22 53,-44 57,-50 5,-6 8,-6 8,1 0,16 -171,185 -222,220 -24,16 -46,33 -50,39 -4,5 -8,7 -8,4 z"
         id="path315" />
      <path
         d="m 778,4288 c -24,-24 -35,-36 -24,-27 37,28 81,69 74,69 -3,0 -26,-19 -50,-42 z"
         id="path317" />
      <path
         d="m 804,4259 c -16,-16 -22,-28 -14,-24 13,5 56,55 47,55 -2,0 -16,-14 -33,-31 z"
         id="path319" />
      <path
         d="m 4245,4200 c 11,-13 29,-34 40,-45 11,-12 39,-43 63,-69 23,-27 42,-46 42,-42 0,15 -59,92 -97,127 -48,45 -75,61 -48,29 z"
         id="path321" />
      <path
         d="m 705,4199 c 3,-3 -3,-13 -11,-20 -9,-8 -48,-61 -86,-119 -59,-90 -54,-101 7,-16 11,15 41,57 68,92 26,35 47,65 47,67 0,2 -7,4 -15,4 -8,0 -12,-4 -10,-8 z"
         id="path323" />
      <path
         d="m 548,4041 c -12,-15 -30,-38 -38,-51 -8,-12 -20,-28 -25,-34 -32,-34 -188,-286 -177,-285 14,1 86,104 102,146 9,24 19,41 22,37 4,-3 15,7 24,23 10,15 21,30 24,33 3,3 21,30 39,60 19,30 40,65 49,78 20,31 8,27 -20,-7 z"
         id="path325" />
      <path
         d="m 4427,4048 c 6,-7 40,-59 76,-114 77,-120 107,-147 52,-48 -42,76 -80,130 -109,157 -22,20 -33,23 -19,5 z"
         id="path327" />
      <path
         d="m 409,3753 c -13,-16 -12,-17 4,-4 16,13 21,21 13,21 -2,0 -10,-8 -17,-17 z"
         id="path329" />
      <path
         d="m 4690,3625 c 0,-5 5,-17 10,-25 5,-8 10,-10 10,-5 0,6 -5,17 -10,25 -5,8 -10,11 -10,5 z"
         id="path331" />
      <path
         d="m 272,3553 c -55,-83 -60,-91 -40,-75 16,13 91,132 83,132 -2,0 -22,-26 -43,-57 z"
         id="path333" />
      <path
         d="m 215,3410 c -9,-15 -25,-70 -19,-70 6,0 35,73 30,77 -2,2 -7,-1 -11,-7 z"
         id="path335" />
      <path
         d="m 162,3338 c -7,-7 -12,-18 -12,-25 0,-7 -4,-21 -10,-31 -25,-45 -64,-249 -44,-229 6,5 83,297 79,297 0,0 -6,-5 -13,-12 z"
         id="path337" />
      <path
         d="m 4806,3263 c 13,-38 24,-69 24,-71 0,-1 2,-13 6,-27 10,-40 22,-29 14,13 -7,37 -55,152 -63,152 -2,0 6,-30 19,-67 z"
         id="path339" />
      <path
         d="m 4846,3115 c 4,-8 8,-15 10,-15 2,0 4,7 4,15 0,8 -4,15 -10,15 -5,0 -7,-7 -4,-15 z"
         id="path341" />
      <path
         d="m 4902,2960 c 0,-14 2,-19 5,-12 2,6 2,18 0,25 -3,6 -5,1 -5,-13 z"
         id="path343" />
      <path
         d="m 53,2957 c 0,-7 -3,-25 -7,-40 -4,-16 -2,-27 4,-27 5,0 10,6 11,13 0,6 2,24 4,40 2,15 0,27 -4,27 -4,0 -8,-6 -8,-13 z"
         id="path345" />
      <path
         d="m 41,2864 c 0,-11 3,-14 6,-6 3,7 2,16 -1,19 -3,4 -6,-2 -5,-13 z"
         id="path347" />
      <path
         d="m 4941,2734 c 0,-11 3,-14 6,-6 3,7 2,16 -1,19 -3,4 -6,-2 -5,-13 z"
         id="path349" />
      <path
         d="m 35,2689 c -4,-6 -5,-12 -2,-15 2,-3 7,2 10,11 7,17 1,20 -8,4 z"
         id="path351" />
      <path
         d="m 4948,2562 c 2,-26 7,-51 12,-55 4,-5 6,13 4,39 -2,27 -7,51 -12,56 -4,4 -5,-14 -4,-40 z"
         id="path353" />
      <path
         d="m 39,2588 c -5,-17 -4,-48 3,-48 4,0 7,11 6,25 -2,21 -6,31 -9,23 z"
         id="path355" />
      <path
         d="m 19,2459 c -3,-67 2,-144 10,-152 4,-4 7,33 5,84 -3,91 -13,134 -15,68 z"
         id="path357" />
      <path
         d="m 50,2206 c 0,-8 4,-17 9,-20 5,-4 7,3 4,14 -6,23 -13,26 -13,6 z"
         id="path359" />
      <path
         d="m 4952,2130 c 0,-14 2,-19 5,-12 2,6 2,18 0,25 -3,6 -5,1 -5,-13 z"
         id="path361" />
      <path
         d="m 54,2043 c 3,-10 15,-61 27,-113 25,-114 43,-143 23,-39 -14,77 -42,169 -50,169 -3,0 -3,-8 0,-17 z"
         id="path363" />
      <path
         d="m 4825,1769 c -4,-6 -5,-12 -2,-15 2,-3 7,2 10,11 7,17 1,20 -8,4 z"
         id="path365" />
      <path
         d="m 560,1650 c 6,-11 12,-20 14,-20 2,0 2,9 -1,20 -3,11 -9,20 -15,20 -5,0 -4,-9 2,-20 z"
         id="path367" />
      <path
         d="m 196,1633 c 8,-31 62,-143 69,-143 3,0 -7,26 -21,58 -15,31 -29,67 -31,80 -3,12 -10,25 -15,28 -5,3 -6,-6 -2,-23 z"
         id="path369" />
      <path
         d="m 640,1136 c 0,-2 7,-9 15,-16 9,-7 15,-8 15,-2 0,5 -7,12 -15,16 -8,3 -15,4 -15,2 z"
         id="path371" />
      <path
         d="m 4550,1109 c 0,-5 5,-7 10,-4 6,3 10,8 10,11 0,2 -4,4 -10,4 -5,0 -10,-5 -10,-11 z"
         id="path373" />
      <path
         d="m 710,1086 c 0,-2 8,-10 18,-17 15,-13 16,-12 3,4 -13,16 -21,21 -21,13 z"
         id="path375" />
      <path
         d="m 520,1056 c 0,-2 8,-10 18,-17 15,-13 16,-12 3,4 -13,16 -21,21 -21,13 z"
         id="path377" />
      <path
         d="m 4458,1013 c -60,-63 -136,-168 -111,-155 33,18 120,117 141,160 11,23 19,42 18,42 -1,0 -22,-21 -48,-47 z"
         id="path379" />
      <path
         d="m 730,1045 c 0,-9 41,-48 75,-69 25,-16 28,-17 16,-2 -19,22 -91,79 -91,71 z"
         id="path381" />
      <path
         d="m 650,973 c 0,-12 140,-146 175,-168 l 30,-18 -35,38 C 767,881 650,983 650,973 Z"
         id="path383" />
      <path
         d="m 950,956 c 0,-2 12,-12 28,-21 l 27,-18 -19,21 c -17,20 -36,29 -36,18 z"
         id="path385" />
      <path
         d="m 626,892 c 16,-29 143,-142 158,-142 3,0 -16,19 -42,43 -26,23 -67,62 -91,87 -41,42 -43,43 -25,12 z"
         id="path387" />
      <path
         d="m 1261,827 c 2,-1 15,-11 29,-22 l 25,-20 -19,23 c -11,12 -24,22 -29,22 -6,0 -8,-1 -6,-3 z"
         id="path389" />
      <path
         d="m 4230,795 c -34,-35 -47,-65 -28,-65 5,0 8,6 5,13 -2,6 12,29 31,50 20,20 34,37 31,37 -3,0 -20,-16 -39,-35 z"
         id="path391" />
      <path
         d="m 843,726 c 54,-54 100,-96 103,-94 2,2 -29,35 -69,73 -121,114 -138,124 -34,21 z"
         id="path393" />
      <path
         d="m 1520,761 c 30,-26 70,-46 70,-36 0,2 -24,17 -52,35 l -53,31 z"
         id="path395" />
      <path
         d="m 4254,748 -29,-33 33,29 c 30,28 37,36 29,36 -2,0 -16,-15 -33,-32 z"
         id="path397" />
      <path
         d="m 834,652 c 3,-5 28,-23 56,-40 61,-38 57,-25 -5,18 -44,30 -61,37 -51,22 z"
         id="path399" />
      <path
         d="m 4074,632 c -11,-9 -31,-25 -45,-34 -121,-87 -163,-118 -157,-118 12,0 152,97 193,133 40,37 47,51 9,19 z"
         id="path401" />
      <path
         d="m 1066,572 c 88,-86 240,-182 287,-182 7,0 17,-4 23,-10 11,-11 235,-93 240,-87 2,1 -41,24 -94,50 -53,27 -104,52 -112,57 -43,27 -172,100 -176,100 -3,0 -20,11 -38,25 -18,14 -38,25 -44,25 -7,0 -12,4 -12,8 0,7 -77,50 -125,70 -5,2 18,-23 51,-56 z"
         id="path403" />
      <path
         d="m 3991,524 c -33,-25 -64,-50 -67,-56 -8,-12 64,38 111,77 50,42 21,28 -44,-21 z"
         id="path405" />
      <path
         d="m 1556,491 c 14,-13 80,-33 68,-21 -6,6 -25,15 -44,20 -19,5 -29,6 -24,1 z"
         id="path407" />
      <path
         d="m 3775,429 c -16,-10 -26,-19 -22,-19 11,0 67,29 67,35 0,9 -15,4 -45,-16 z"
         id="path409" />
      <path
         d="m 1700,413 c 77,-32 160,-60 160,-53 0,10 -91,45 -140,54 -19,3 -28,3 -20,-1 z"
         id="path411" />
      <path
         d="m 3758,384 c -38,-20 -36,-28 2,-9 17,9 30,18 30,20 0,7 -1,6 -32,-11 z"
         id="path413" />
      <path
         d="m 3510,310 c -63,-33 -136,-67 -162,-76 -76,-28 -56,-35 23,-9 39,14 100,43 135,65 35,22 67,40 71,40 5,0 19,9 33,20 36,28 27,25 -100,-40 z"
         id="path415" />
      <path
         d="m 2370,348 c 0,-3 -8,-9 -17,-11 -10,-3 8,-3 40,-2 72,3 83,12 23,17 -25,2 -46,0 -46,-4 z"
         id="path417" />
      <path
         d="m 3530,248 c -14,-6 -51,-22 -83,-36 -31,-14 -56,-27 -54,-29 5,-4 177,67 177,73 0,6 -13,4 -40,-8 z"
         id="path419" />
      <path
         d="m 2060,237 c 0,-17 235,-53 245,-37 2,4 -1,7 -8,7 -18,0 -109,12 -132,17 -56,11 -105,17 -105,13 z"
         id="path421" />
      <path
         d="m 1637,219 c 7,-7 15,-10 18,-7 3,3 -2,9 -12,12 -14,6 -15,5 -6,-5 z"
         id="path423" />
      <path
         d="m 1696,195 c 17,-8 44,-17 60,-20 16,-3 7,3 -21,15 -55,22 -89,26 -39,5 z"
         id="path425" />
      <path
         d="m 3198,141 c -79,-22 -83,-33 -7,-15 35,8 68,19 73,24 13,13 5,12 -66,-9 z"
         id="path427" />
      <path
         d="m 1997,119 c 23,-11 63,-21 90,-24 40,-5 35,-1 -37,20 -100,29 -109,30 -53,4 z"
         id="path429" />
      <path
         d="m 2250,125 c 49,-13 170,-21 159,-11 -6,6 -69,15 -146,21 l -68,5 z"
         id="path431" />
      <path
         d="m 3009,136 c -4,-4 -47,-8 -194,-22 -81,-7 -101,-11 -122,-23 -14,-8 -9,-10 22,-6 22,2 68,7 102,10 34,3 70,7 80,9 10,2 42,7 70,11 29,4 55,11 59,16 5,9 -8,13 -17,5 z"
         id="path433" />
      <path
         d="m 2430,94 c 0,-5 55,-10 122,-12 68,-2 120,-1 117,2 -10,10 -239,19 -239,10 z"
         id="path435" />
      <path
         d="m 2219,77 c 7,-7 14,-8 21,-1 6,6 2,10 -12,11 -16,2 -18,-1 -9,-10 z"
         id="path437" />
      <path
         d="m 2813,77 c -46,-6 -83,-14 -83,-19 0,-5 8,-7 18,-4 9,2 44,7 78,11 33,4 67,11 75,16 8,5 10,8 4,7 -5,-1 -47,-6 -92,-11 z"
         id="path439" />
      <path
         d="m 2280,70 c 8,-4 51,-11 95,-14 51,-3 70,-2 53,4 -38,11 -167,21 -148,10 z"
         id="path441" />
      <path
         d="m 2635,59 -60,-6 67,-1 c 37,-1 69,2 72,6 6,9 7,9 -79,1 z"
         id="path443" />
      <path
         d="m 2222,45 c 3,-3 38,-9 77,-14 39,-4 68,-4 64,0 -10,8 -150,22 -141,14 z"
         id="path445" />
    </g>
    <path
       style="display:inline;fill:#ffffff;fill-opacity:0;stroke-width:0.47847"
       d="m 41.857273,291.42943 c -6.562023,-0.68702 -13.483496,-3.17801 -16.320299,-5.87356 -2.061902,-1.95922 -4.553561,-5.21344 -5.633681,-7.35784 -2.333053,-4.63189 -2.433378,-6.11457 -2.440933,-36.07427 -0.0043,-17.10645 0.18341,-29.04923 0.481305,-30.62002 1.163068,-6.13284 5.615547,-12.60806 10.436328,-15.17751 6.7278,-3.58588 15.968155,-4.55269 41.162313,-4.30677 15.168511,0.14806 16.301064,0.21835 17.241526,1.06995 0.969458,0.87786 1.00659,1.33192 1.00659,12.30958 0,11.38218 -0.0015,11.39911 -1.106002,12.12278 -0.939698,0.61571 -3.513053,0.71078 -17.113793,0.63226 -15.568527,-0.0899 -16.06693,-0.0638 -18.162881,0.95082 -4.099587,1.98458 -4.048065,1.70919 -4.048065,21.63782 0,18.74286 0.103536,19.68073 2.485078,22.51104 2.195154,2.60879 2.07553,2.59169 19.922624,2.84788 15.796034,0.22675 16.701479,0.28772 17.344544,1.16801 0.908798,1.24402 1.003838,23.19571 0.104333,24.09523 -0.661493,0.66148 -39.134538,0.71628 -45.358987,0.0646 z"
       id="path8514" />
    <path
       style="display:inline;fill:#ffffff;fill-opacity:0;stroke-width:0.47847"
       d="m 132.76664,293.34977 c -9.11419,-0.82843 -15.61352,-2.44343 -19.51946,-4.85033 -1.96815,-1.2128 -6.2892,-6.54251 -7.87917,-9.71838 -2.43187,-4.85751 -2.50578,-5.95122 -2.50578,-37.08145 0,-32.33203 -0.0526,-31.7406 3.41193,-38.33369 2.1428,-4.07774 4.55608,-6.29649 9.16439,-8.42567 9.72694,-4.49412 25.42548,-6.02756 42.90979,-4.19145 12.00409,1.26061 18.03566,3.84914 23.12972,9.92643 2.59753,3.09888 3.69554,5.44346 4.63026,9.88694 0.60052,2.85481 0.72438,8.20179 0.71917,31.0491 -0.006,25.21966 -0.0846,27.97969 -0.91381,31.99793 -1.03652,5.02271 -3.21465,9.52599 -5.63561,11.65162 -3.68668,3.23694 -11.3305,6.15309 -20.02444,7.63939 -5.92695,1.01326 -18.9432,1.22615 -27.48699,0.44956 z m 22.93184,-27.07347 c 0.97087,-1.23426 0.99167,-1.72616 0.99167,-23.45207 v -22.19137 l -1.56834,-1.71136 c -1.42615,-1.55619 -1.8925,-1.74892 -5.14356,-2.12566 -1.96636,-0.22786 -5.94191,-0.2803 -8.83454,-0.11652 -4.85602,0.27493 -5.35667,0.39511 -6.52877,1.5672 -1.09769,1.0977 -1.31434,1.81528 -1.60132,5.30383 -0.18254,2.21891 -0.25895,11.67794 -0.16982,21.02008 0.15121,15.8475 0.22619,17.11351 1.11901,18.89326 0.52631,1.04916 1.68854,2.39486 2.58272,2.99044 1.53192,1.02035 2.10318,1.08287 9.89354,1.08287 h 8.26774 z"
       id="path8553" />
    <path
       style="display:inline;fill:#ffffff;fill-opacity:0;stroke-width:0.47847"
       d="m 204.7284,291.27185 c -0.81588,-0.36402 -1.6233,-1.02638 -1.79426,-1.47191 -0.49003,-1.277 -0.34769,-21.46366 0.15697,-22.26294 0.38747,-0.61365 3.44458,-0.75239 21.08516,-0.95694 l 20.63199,-0.23923 1.39562,-1.56258 c 1.38146,-1.54672 1.81127,-3.73533 1.09841,-5.59304 -0.55557,-1.44778 -2.9442,-2.148 -11.4972,-3.37036 -17.199,-2.45802 -22.57002,-4.05541 -27.30044,-8.11942 -2.33958,-2.00998 -4.69828,-6.48586 -5.40036,-10.24774 -0.71351,-3.82314 -0.58321,-24.54882 0.17633,-28.04483 1.77508,-8.17051 6.67865,-13.07317 15.8499,-15.84693 l 4.30623,-1.30238 22.96658,-0.0378 c 12.63161,-0.0208 23.52177,0.11851 24.20034,0.30957 0.67857,0.19106 1.48599,0.90095 1.79426,1.57754 0.65972,1.44794 0.78443,22.10065 0.13959,23.11802 -0.32851,0.51829 -3.78397,0.6309 -18.05493,0.5884 -16.00954,-0.0477 -17.80156,0.0261 -19.29482,0.79445 -0.97565,0.50202 -1.82366,1.39342 -2.08193,2.18849 -0.62952,1.93786 -0.008,4.52053 1.29253,5.3728 1.29836,0.85072 5.7843,1.78395 12.48343,2.59697 6.76881,0.82147 13.02648,1.87728 15.6126,2.63419 6.72464,1.96818 12.00421,6.1637 13.75726,10.9325 2.09362,5.69527 2.53832,25.17989 0.7491,32.82241 -1.86646,7.97247 -7.06077,12.87258 -16.40882,15.47946 -3.49389,0.97434 -4.8282,1.02777 -29.02119,1.16223 -20.78664,0.11553 -25.62639,0.0216 -26.84235,-0.52092 z"
       id="path8592" />
    <path
       style="display:inline;fill:#ffffff;fill-opacity:0;stroke-width:0.47847"
       d="m 296.14763,291.48372 c -2.49934,-1.01309 -2.37574,1.57992 -2.37574,-49.8405 0,-45.20817 0.0456,-47.802 0.85441,-48.61085 0.77838,-0.77841 2.01303,-0.85444 13.87563,-0.85444 12.16376,0 13.12762,0.063 14.63673,0.95694 1.85454,1.09854 3.93122,4.4446 10.62483,17.11932 5.02034,9.5063 5.84665,10.6957 7.74197,11.14389 1.06732,0.25239 1.56286,0.0488 2.57257,-1.0566 0.68784,-0.75307 4.18668,-7.07341 7.77522,-14.04522 5.38605,-10.46403 6.77398,-12.80184 7.95378,-13.39716 1.16836,-0.58956 3.79036,-0.72117 14.36808,-0.72117 15.26378,0 15.26122,-6.8e-4 15.75923,4.17406 0.44292,3.71297 0.0788,92.81684 -0.38316,93.74892 -0.83169,1.67831 -2.68927,1.88903 -15.35585,1.74197 -12.04518,-0.13985 -12.34688,-0.16726 -13.18038,-1.19743 -0.78806,-0.97399 -0.86868,-2.96841 -1.05832,-26.1811 -0.11291,-13.81974 -0.35787,-25.27938 -0.54436,-25.46587 -0.5286,-0.5286 -1.47311,0.97062 -5.36686,8.51881 -4.61013,8.93689 -4.98741,9.31991 -9.6066,9.75276 -3.85728,0.36146 -7.64296,0.0296 -9.54413,-0.83661 -1.2412,-0.56553 -3.65734,-3.91132 -5.4571,-7.55678 -2.3184,-4.69599 -5.54667,-10.03637 -5.98054,-9.89335 -0.28598,0.0943 -0.40469,8.06882 -0.31551,21.19534 0.16233,23.89379 -0.10149,29.52576 -1.44608,30.87035 -0.82148,0.82148 -1.80159,0.88765 -12.73213,0.85966 -6.51318,-0.0167 -12.28024,-0.20791 -12.81569,-0.42494 z"
       id="path8631" />
    <path
       style="display:inline;fill:#ffff00;fill-opacity:0;stroke-width:0.47847"
       d="m 437.5916,293.13961 c -13.66508,-1.42186 -18.21165,-3.02176 -22.79188,-8.02027 -3.40925,-3.7206 -5.14582,-6.73131 -6.30673,-10.93408 -0.76489,-2.76908 -0.84517,-5.80949 -0.84517,-32.00718 0,-32.02234 0.008,-32.11966 3.02849,-38.21951 2.26058,-4.5648 4.45657,-6.77524 8.77993,-8.83771 8.02345,-3.82762 15.42498,-5.09088 29.8185,-5.0893 15.29721,10e-4 22.8579,1.08767 29.06877,4.1753 4.04739,2.01209 8.79819,6.52903 10.59362,10.07214 2.51179,4.95678 2.68254,7.30263 2.67861,36.80235 -0.002,16.20651 -0.20165,28.42854 -0.4943,30.28341 -0.7491,4.74799 -2.22501,8.72863 -4.32222,11.65734 -1.62382,2.26764 -2.52847,2.9683 -6.21581,4.81419 -8.06313,4.03641 -15.28519,5.53303 -27.95938,5.79399 -5.29528,0.10903 -11.08519,-0.08 -15.03243,-0.49067 z m 22.7097,-26.77704 1.17443,-1.17442 -0.002,-22.15101 c -0.002,-28.28133 0.86446,-26.27407 -11.48651,-26.6057 -8.41557,-0.22596 -10.54626,0.25856 -11.59747,2.6373 -0.66914,1.51416 -0.88167,39.73717 -0.23757,42.72662 0.19845,0.92106 0.84439,2.27515 1.43542,3.0091 1.75303,2.17695 4.05681,2.68811 12.22077,2.71154 7.14542,0.0205 7.34619,-0.007 8.49285,-1.15343 z"
       id="path8670" />
  </g>
</svg>
