<?xml version="1.0" standalone="no"?>
<!DOCTYPE svg PUBLIC "-//W3C//DTD SVG 20010904//EN"
 "http://www.w3.org/TR/2001/REC-SVG-20010904/DTD/svg10.dtd">
<svg version="1.0" xmlns="http://www.w3.org/2000/svg"
 width="500.000000pt" height="500.000000pt" viewBox="0 0 500.000000 500.000000"
 preserveAspectRatio="xMidYMid meet">
<metadata>
Created by potrace 1.14, written by Peter Selinger 2001-2017
</metadata>
<g transform="translate(0.000000,500.000000) scale(0.100000,-0.100000)"
fill="#000000" stroke="none">
<path d="M2235 4970 c-3 -6 1 -7 9 -4 18 7 21 14 7 14 -6 0 -13 -4 -16 -10z"/>
<path d="M2273 4974 c7 -7 148 -6 155 1 3 3 -32 5 -78 5 -46 0 -81 -3 -77 -6z"/>
<path d="M2546 4962 c-2 -4 14 -8 37 -9 22 -2 38 -1 36 1 -8 8 -69 14 -73 8z"/>
<path d="M2827 4959 c7 -7 15 -10 18 -7 3 3 -2 9 -12 12 -14 6 -15 5 -6 -5z"/>
<path d="M2016 4938 c-22 -5 -42 -11 -45 -13 -7 -7 123 7 131 14 11 9 -42 9
-86 -1z"/>
<path d="M2128 4943 c7 -3 16 -2 19 1 4 3 -2 6 -13 5 -11 0 -14 -3 -6 -6z"/>
<path d="M2397 4944 c-1 -1 -27 -5 -57 -9 -30 -4 -57 -8 -60 -10 -3 -1 -32 -6
-65 -10 -33 -4 -69 -9 -80 -10 -59 -9 -410 -125 -641 -213 -144 -55 -213 -89
-320 -160 -214 -140 -212 -139 -390 -337 -49 -55 -99 -111 -112 -125 -13 -14
-42 -50 -65 -80 -23 -30 -45 -56 -49 -58 -5 -2 -8 -8 -8 -12 0 -5 -19 -37 -43
-72 -95 -140 -197 -307 -226 -368 -64 -136 -132 -325 -147 -405 -4 -22 -8 -44
-9 -50 -40 -180 -40 -183 -51 -400 -12 -228 -11 -285 11 -440 4 -22 13 -86 21
-142 16 -113 54 -229 170 -511 99 -240 153 -326 269 -428 50 -43 103 -91 120
-106 16 -15 31 -25 33 -23 2 2 -17 22 -43 46 -53 49 -195 234 -195 255 0 7
-36 90 -80 183 -44 94 -82 179 -84 188 -1 10 -6 25 -9 33 -14 32 -37 116 -37
135 0 19 59 -85 64 -112 1 -7 5 -16 9 -19 4 -4 7 -16 7 -26 0 -11 4 -16 10
-13 5 3 7 0 4 -8 -3 -8 6 -28 20 -45 15 -16 26 -34 26 -39 0 -6 6 -23 14 -39
8 -16 22 -47 32 -69 37 -80 98 -171 145 -217 27 -27 51 -48 54 -48 2 0 -17 33
-42 72 -45 69 -99 195 -89 205 3 3 18 -25 35 -62 51 -112 163 -268 230 -319
14 -11 4 4 -22 34 -26 30 -55 71 -63 90 -61 135 -65 146 -45 120 11 -14 30
-44 42 -68 25 -47 69 -110 69 -98 0 4 -9 26 -20 48 -11 23 -18 44 -15 46 3 3
14 -17 26 -44 12 -27 37 -72 55 -100 32 -51 110 -134 126 -134 10 0 11 20 1
20 -5 1 -24 15 -43 32 -19 17 -24 24 -10 15 60 -40 61 -35 5 24 -85 90 -109
123 -46 64 50 -47 52 -48 35 -16 -11 18 -23 42 -29 52 -5 11 -13 19 -17 19 -5
0 -8 4 -8 9 0 14 -102 165 -117 174 -7 5 -11 13 -7 18 3 5 -9 33 -27 62 -65
102 -119 220 -109 232 7 9 7 21 0 39 -5 15 -10 33 -10 39 1 18 35 -49 69 -139
31 -80 207 -362 246 -394 25 -20 19 -8 -38 78 -26 40 -55 89 -63 110 -9 23 -9
30 -1 18 127 -196 245 -356 283 -386 11 -8 2 5 -18 30 -58 70 -120 160 -111
160 4 0 15 -10 22 -22 27 -44 85 -108 97 -108 7 0 15 -8 18 -18 13 -39 205
-210 341 -302 72 -49 38 -13 -53 56 -100 76 -142 115 -141 128 0 6 3 6 6 -1 2
-7 10 -13 16 -13 7 0 35 -15 62 -33 109 -73 114 -75 65 -22 -25 26 -63 67 -85
89 -23 23 -52 57 -65 76 -20 29 -13 25 39 -23 69 -63 332 -263 422 -320 111
-71 343 -165 375 -153 8 3 14 -1 14 -9 0 -8 6 -15 13 -16 32 -1 103 -12 107
-16 9 -9 -210 6 -252 17 -22 6 -42 9 -44 7 -3 -2 47 -21 111 -42 63 -20 115
-41 115 -46 0 -4 -8 -6 -17 -2 -10 3 -15 3 -12 -1 4 -4 20 -9 35 -11 16 -2 51
-9 78 -15 26 -6 74 -13 105 -16 31 -3 79 -9 106 -13 28 -4 127 -7 222 -6 96 0
168 -4 163 -9 -4 -4 -67 -9 -138 -10 -72 0 -127 -5 -123 -9 13 -13 327 -7 366
7 12 5 10 2 -5 -7 -26 -15 -101 -29 -180 -32 -25 -2 -88 -6 -140 -11 -52 -5
-101 -8 -107 -8 -17 2 -17 -13 0 -19 15 -7 -16 -8 -163 -9 -117 0 -212 15
-328 51 -34 10 -62 15 -62 11 0 -11 248 -77 353 -94 15 -3 35 -7 45 -10 9 -3
35 -7 57 -11 22 -3 67 -10 100 -17 33 -6 91 -11 129 -12 47 -1 71 -5 74 -14 3
-9 -7 -13 -30 -12 -18 0 -67 -2 -108 -4 -41 -2 -95 -5 -119 -5 -24 -1 -42 -3
-40 -5 9 -8 112 -18 244 -22 77 -3 152 -6 168 -8 15 -3 25 0 22 4 -3 5 3 8 14
7 11 0 17 -5 15 -9 -3 -4 2 -8 11 -8 9 0 14 4 10 9 -3 5 -1 13 5 16 6 4 9 1 8
-7 -2 -7 2 -12 7 -11 6 0 39 4 75 7 36 4 79 9 95 11 17 3 46 7 65 9 99 12 422
159 728 331 87 49 153 96 225 160 150 132 375 354 406 400 191 276 203 298
290 540 34 94 66 179 71 190 23 52 80 250 85 302 4 32 9 72 12 88 3 17 6 129
8 250 3 230 -9 380 -42 510 -9 39 -17 73 -18 77 0 3 -3 10 -7 14 -5 4 -8 16
-8 26 0 10 -9 47 -19 81 -11 34 -36 116 -56 182 -20 66 -41 134 -48 150 -11
31 -196 376 -206 385 -3 3 -14 21 -24 40 -10 19 -47 67 -83 105 -36 39 -97
106 -136 150 -151 169 -203 213 -501 417 -73 49 -142 87 -197 108 -47 17 -101
37 -120 45 -137 53 -460 160 -542 181 -42 10 -57 12 -132 19 -43 4 -88 8 -99
11 -11 2 -63 6 -116 9 -53 4 -111 7 -129 9 -18 1 -34 1 -35 0z m-1506 -3691
c13 -16 12 -17 -3 -4 -10 7 -18 15 -18 17 0 8 8 3 21 -13z m1309 -727 c0 -2
-7 -6 -15 -10 -8 -3 -15 -1 -15 4 0 6 7 10 15 10 8 0 15 -2 15 -4z"/>
<path d="M3065 4871 c36 -10 256 -86 375 -130 46 -17 80 -27 75 -23 -6 5 -28
16 -50 24 -22 9 -65 27 -95 41 -111 52 -220 88 -277 92 -42 3 -50 2 -28 -4z"/>
<path d="M1889 4865 c-3 -2 -23 -7 -45 -10 -21 -4 -53 -10 -69 -14 -46 -12
-226 -93 -220 -99 3 -3 15 0 28 6 24 12 152 57 262 92 75 24 87 30 63 30 -8 0
-17 -2 -19 -5z"/>
<path d="M1560 4788 c-24 -11 -140 -67 -187 -92 -13 -6 -23 -14 -23 -19 0 -4
44 14 98 41 53 26 113 55 132 64 38 18 20 23 -20 6z"/>
<path d="M3530 4745 c0 -2 23 -16 50 -30 63 -32 66 -25 4 9 -48 27 -54 29 -54
21z"/>
<path d="M1515 4730 c-3 -6 1 -7 9 -4 18 7 21 14 7 14 -6 0 -13 -4 -16 -10z"/>
<path d="M1119 4569 c-23 -19 -23 -20 -2 -10 12 6 25 16 28 21 10 16 -1 12
-26 -11z"/>
<path d="M3828 4549 c34 -24 90 -63 125 -87 l62 -43 -65 61 c-63 60 -108 89
-160 105 -14 4 3 -12 38 -36z"/>
<path d="M3960 4509 c0 -11 162 -172 215 -214 28 -22 53 -44 57 -50 5 -6 8 -6
8 1 0 16 -171 185 -222 220 -24 16 -46 33 -50 39 -4 5 -8 7 -8 4z"/>
<path d="M778 4288 c-24 -24 -35 -36 -24 -27 37 28 81 69 74 69 -3 0 -26 -19
-50 -42z"/>
<path d="M804 4259 c-16 -16 -22 -28 -14 -24 13 5 56 55 47 55 -2 0 -16 -14
-33 -31z"/>
<path d="M4245 4200 c11 -13 29 -34 40 -45 11 -12 39 -43 63 -69 23 -27 42
-46 42 -42 0 15 -59 92 -97 127 -48 45 -75 61 -48 29z"/>
<path d="M705 4199 c3 -3 -3 -13 -11 -20 -9 -8 -48 -61 -86 -119 -59 -90 -54
-101 7 -16 11 15 41 57 68 92 26 35 47 65 47 67 0 2 -7 4 -15 4 -8 0 -12 -4
-10 -8z"/>
<path d="M548 4041 c-12 -15 -30 -38 -38 -51 -8 -12 -20 -28 -25 -34 -32 -34
-188 -286 -177 -285 14 1 86 104 102 146 9 24 19 41 22 37 4 -3 15 7 24 23 10
15 21 30 24 33 3 3 21 30 39 60 19 30 40 65 49 78 20 31 8 27 -20 -7z"/>
<path d="M4427 4048 c6 -7 40 -59 76 -114 77 -120 107 -147 52 -48 -42 76 -80
130 -109 157 -22 20 -33 23 -19 5z"/>
<path d="M409 3753 c-13 -16 -12 -17 4 -4 16 13 21 21 13 21 -2 0 -10 -8 -17
-17z"/>
<path d="M4690 3625 c0 -5 5 -17 10 -25 5 -8 10 -10 10 -5 0 6 -5 17 -10 25
-5 8 -10 11 -10 5z"/>
<path d="M272 3553 c-55 -83 -60 -91 -40 -75 16 13 91 132 83 132 -2 0 -22
-26 -43 -57z"/>
<path d="M215 3410 c-9 -15 -25 -70 -19 -70 6 0 35 73 30 77 -2 2 -7 -1 -11
-7z"/>
<path d="M162 3338 c-7 -7 -12 -18 -12 -25 0 -7 -4 -21 -10 -31 -25 -45 -64
-249 -44 -229 6 5 83 297 79 297 0 0 -6 -5 -13 -12z"/>
<path d="M4806 3263 c13 -38 24 -69 24 -71 0 -1 2 -13 6 -27 10 -40 22 -29 14
13 -7 37 -55 152 -63 152 -2 0 6 -30 19 -67z"/>
<path d="M4846 3115 c4 -8 8 -15 10 -15 2 0 4 7 4 15 0 8 -4 15 -10 15 -5 0
-7 -7 -4 -15z"/>
<path d="M4902 2960 c0 -14 2 -19 5 -12 2 6 2 18 0 25 -3 6 -5 1 -5 -13z"/>
<path d="M53 2957 c0 -7 -3 -25 -7 -40 -4 -16 -2 -27 4 -27 5 0 10 6 11 13 0
6 2 24 4 40 2 15 0 27 -4 27 -4 0 -8 -6 -8 -13z"/>
<path d="M41 2864 c0 -11 3 -14 6 -6 3 7 2 16 -1 19 -3 4 -6 -2 -5 -13z"/>
<path d="M4941 2734 c0 -11 3 -14 6 -6 3 7 2 16 -1 19 -3 4 -6 -2 -5 -13z"/>
<path d="M35 2689 c-4 -6 -5 -12 -2 -15 2 -3 7 2 10 11 7 17 1 20 -8 4z"/>
<path d="M4948 2562 c2 -26 7 -51 12 -55 4 -5 6 13 4 39 -2 27 -7 51 -12 56
-4 4 -5 -14 -4 -40z"/>
<path d="M39 2588 c-5 -17 -4 -48 3 -48 4 0 7 11 6 25 -2 21 -6 31 -9 23z"/>
<path d="M19 2459 c-3 -67 2 -144 10 -152 4 -4 7 33 5 84 -3 91 -13 134 -15
68z"/>
<path d="M50 2206 c0 -8 4 -17 9 -20 5 -4 7 3 4 14 -6 23 -13 26 -13 6z"/>
<path d="M4952 2130 c0 -14 2 -19 5 -12 2 6 2 18 0 25 -3 6 -5 1 -5 -13z"/>
<path d="M54 2043 c3 -10 15 -61 27 -113 25 -114 43 -143 23 -39 -14 77 -42
169 -50 169 -3 0 -3 -8 0 -17z"/>
<path d="M4825 1769 c-4 -6 -5 -12 -2 -15 2 -3 7 2 10 11 7 17 1 20 -8 4z"/>
<path d="M560 1650 c6 -11 12 -20 14 -20 2 0 2 9 -1 20 -3 11 -9 20 -15 20 -5
0 -4 -9 2 -20z"/>
<path d="M196 1633 c8 -31 62 -143 69 -143 3 0 -7 26 -21 58 -15 31 -29 67
-31 80 -3 12 -10 25 -15 28 -5 3 -6 -6 -2 -23z"/>
<path d="M640 1136 c0 -2 7 -9 15 -16 9 -7 15 -8 15 -2 0 5 -7 12 -15 16 -8 3
-15 4 -15 2z"/>
<path d="M4550 1109 c0 -5 5 -7 10 -4 6 3 10 8 10 11 0 2 -4 4 -10 4 -5 0 -10
-5 -10 -11z"/>
<path d="M710 1086 c0 -2 8 -10 18 -17 15 -13 16 -12 3 4 -13 16 -21 21 -21
13z"/>
<path d="M520 1056 c0 -2 8 -10 18 -17 15 -13 16 -12 3 4 -13 16 -21 21 -21
13z"/>
<path d="M4458 1013 c-60 -63 -136 -168 -111 -155 33 18 120 117 141 160 11
23 19 42 18 42 -1 0 -22 -21 -48 -47z"/>
<path d="M730 1045 c0 -9 41 -48 75 -69 25 -16 28 -17 16 -2 -19 22 -91 79
-91 71z"/>
<path d="M650 973 c0 -12 140 -146 175 -168 l30 -18 -35 38 c-53 56 -170 158
-170 148z"/>
<path d="M950 956 c0 -2 12 -12 28 -21 l27 -18 -19 21 c-17 20 -36 29 -36 18z"/>
<path d="M626 892 c16 -29 143 -142 158 -142 3 0 -16 19 -42 43 -26 23 -67 62
-91 87 -41 42 -43 43 -25 12z"/>
<path d="M1261 827 c2 -1 15 -11 29 -22 l25 -20 -19 23 c-11 12 -24 22 -29 22
-6 0 -8 -1 -6 -3z"/>
<path d="M4230 795 c-34 -35 -47 -65 -28 -65 5 0 8 6 5 13 -2 6 12 29 31 50
20 20 34 37 31 37 -3 0 -20 -16 -39 -35z"/>
<path d="M843 726 c54 -54 100 -96 103 -94 2 2 -29 35 -69 73 -121 114 -138
124 -34 21z"/>
<path d="M1520 761 c30 -26 70 -46 70 -36 0 2 -24 17 -52 35 l-53 31 35 -30z"/>
<path d="M4254 748 l-29 -33 33 29 c30 28 37 36 29 36 -2 0 -16 -15 -33 -32z"/>
<path d="M834 652 c3 -5 28 -23 56 -40 61 -38 57 -25 -5 18 -44 30 -61 37 -51
22z"/>
<path d="M4074 632 c-11 -9 -31 -25 -45 -34 -121 -87 -163 -118 -157 -118 12
0 152 97 193 133 40 37 47 51 9 19z"/>
<path d="M1066 572 c88 -86 240 -182 287 -182 7 0 17 -4 23 -10 11 -11 235
-93 240 -87 2 1 -41 24 -94 50 -53 27 -104 52 -112 57 -43 27 -172 100 -176
100 -3 0 -20 11 -38 25 -18 14 -38 25 -44 25 -7 0 -12 4 -12 8 0 7 -77 50
-125 70 -5 2 18 -23 51 -56z"/>
<path d="M3991 524 c-33 -25 -64 -50 -67 -56 -8 -12 64 38 111 77 50 42 21 28
-44 -21z"/>
<path d="M1556 491 c14 -13 80 -33 68 -21 -6 6 -25 15 -44 20 -19 5 -29 6 -24
1z"/>
<path d="M3775 429 c-16 -10 -26 -19 -22 -19 11 0 67 29 67 35 0 9 -15 4 -45
-16z"/>
<path d="M1700 413 c77 -32 160 -60 160 -53 0 10 -91 45 -140 54 -19 3 -28 3
-20 -1z"/>
<path d="M3758 384 c-38 -20 -36 -28 2 -9 17 9 30 18 30 20 0 7 -1 6 -32 -11z"/>
<path d="M3510 310 c-63 -33 -136 -67 -162 -76 -76 -28 -56 -35 23 -9 39 14
100 43 135 65 35 22 67 40 71 40 5 0 19 9 33 20 36 28 27 25 -100 -40z"/>
<path d="M2370 348 c0 -3 -8 -9 -17 -11 -10 -3 8 -3 40 -2 72 3 83 12 23 17
-25 2 -46 0 -46 -4z"/>
<path d="M3530 248 c-14 -6 -51 -22 -83 -36 -31 -14 -56 -27 -54 -29 5 -4 177
67 177 73 0 6 -13 4 -40 -8z"/>
<path d="M2060 237 c0 -17 235 -53 245 -37 2 4 -1 7 -8 7 -18 0 -109 12 -132
17 -56 11 -105 17 -105 13z"/>
<path d="M1637 219 c7 -7 15 -10 18 -7 3 3 -2 9 -12 12 -14 6 -15 5 -6 -5z"/>
<path d="M1696 195 c17 -8 44 -17 60 -20 16 -3 7 3 -21 15 -55 22 -89 26 -39
5z"/>
<path d="M3198 141 c-79 -22 -83 -33 -7 -15 35 8 68 19 73 24 13 13 5 12 -66
-9z"/>
<path d="M1997 119 c23 -11 63 -21 90 -24 40 -5 35 -1 -37 20 -100 29 -109 30
-53 4z"/>
<path d="M2250 125 c49 -13 170 -21 159 -11 -6 6 -69 15 -146 21 l-68 5 55
-15z"/>
<path d="M3009 136 c-4 -4 -47 -8 -194 -22 -81 -7 -101 -11 -122 -23 -14 -8
-9 -10 22 -6 22 2 68 7 102 10 34 3 70 7 80 9 10 2 42 7 70 11 29 4 55 11 59
16 5 9 -8 13 -17 5z"/>
<path d="M2430 94 c0 -5 55 -10 122 -12 68 -2 120 -1 117 2 -10 10 -239 19
-239 10z"/>
<path d="M2219 77 c7 -7 14 -8 21 -1 6 6 2 10 -12 11 -16 2 -18 -1 -9 -10z"/>
<path d="M2813 77 c-46 -6 -83 -14 -83 -19 0 -5 8 -7 18 -4 9 2 44 7 78 11 33
4 67 11 75 16 8 5 10 8 4 7 -5 -1 -47 -6 -92 -11z"/>
<path d="M2280 70 c8 -4 51 -11 95 -14 51 -3 70 -2 53 4 -38 11 -167 21 -148
10z"/>
<path d="M2635 59 l-60 -6 67 -1 c37 -1 69 2 72 6 6 9 7 9 -79 1z"/>
<path d="M2222 45 c3 -3 38 -9 77 -14 39 -4 68 -4 64 0 -10 8 -150 22 -141 14z"/>
</g>
</svg>
